<svg width="169" height="143" viewBox="0 0 169 143" fill="none" xmlns="http://www.w3.org/2000/svg">
<rect width="168" height="143" fill="#141414"/>
<path d="M75.4031 0V143H56.6285V84.37H19.7746V143H1V0H19.7746V56.3829H56.6285V0H75.4031Z" fill="#FBFEF9" fill-opacity="0.25"/>
<path d="M154.166 68.64C158.801 71.2276 162.433 75.5857 165.06 81.7143C167.687 87.7067 169 95.1291 169 103.981C169 116.511 166.219 126.18 160.656 132.99C155.17 139.663 147.135 143 136.55 143H94.5969V0H134.232C144.122 0 151.693 3.33667 156.947 10.01C162.278 16.6833 164.944 25.74 164.944 37.18C164.944 44.1257 163.978 50.3224 162.046 55.77C160.192 61.2176 157.565 65.5076 154.166 68.64ZM113.256 24.9229V58.63H131.914C136.55 58.63 140.065 57.2 142.461 54.34C144.856 51.48 146.053 47.2581 146.053 41.6743C146.053 36.0905 144.856 31.9367 142.461 29.2129C140.065 26.3529 136.55 24.9229 131.914 24.9229H113.256ZM135.159 118.077C140.104 118.077 143.813 116.647 146.285 113.787C148.835 110.927 150.109 106.501 150.109 100.509C150.109 88.66 145.126 82.7357 135.159 82.7357H113.256V118.077H135.159Z" fill="#FBFEF9" fill-opacity="0.25"/>
<path d="M25.554 63.6V79H23.354V72.136H14.51V79H12.31V63.6H14.51V70.222H23.354V63.6H25.554ZM34.1015 67.23C35.7148 67.23 36.9468 67.626 37.7975 68.418C38.6628 69.21 39.0955 70.3907 39.0955 71.96V79H37.0935V77.46C36.7415 78.0027 36.2355 78.4207 35.5755 78.714C34.9302 78.9927 34.1602 79.132 33.2655 79.132C31.9602 79.132 30.9115 78.8167 30.1195 78.186C29.3422 77.5553 28.9535 76.7267 28.9535 75.7C28.9535 74.6733 29.3275 73.852 30.0755 73.236C30.8235 72.6053 32.0115 72.29 33.6395 72.29H36.9835V71.872C36.9835 70.9627 36.7195 70.266 36.1915 69.782C35.6635 69.298 34.8862 69.056 33.8595 69.056C33.1702 69.056 32.4955 69.1733 31.8355 69.408C31.1755 69.628 30.6182 69.9287 30.1635 70.31L29.2835 68.726C29.8848 68.242 30.6035 67.8753 31.4395 67.626C32.2755 67.362 33.1628 67.23 34.1015 67.23ZM33.6175 77.504C34.4242 77.504 35.1208 77.328 35.7075 76.976C36.2942 76.6093 36.7195 76.096 36.9835 75.436V73.808H33.7275C31.9382 73.808 31.0435 74.4093 31.0435 75.612C31.0435 76.1987 31.2708 76.6607 31.7255 76.998C32.1802 77.3353 32.8108 77.504 33.6175 77.504ZM47.272 64.282C46.0106 64.282 45.38 64.964 45.38 66.328V67.34H48.768V69.078H45.424V79H43.312V69.078H41.332V67.34H43.312V66.306C43.312 65.1473 43.6493 64.2307 44.324 63.556C44.9986 62.8813 45.9446 62.544 47.162 62.544C47.6313 62.544 48.0713 62.6027 48.482 62.72C48.8926 62.8373 49.2446 63.006 49.538 63.226L48.9 64.832C48.416 64.4653 47.8733 64.282 47.272 64.282ZM52.53 67.34H54.642V79H52.53V67.34ZM53.586 65.096C53.1753 65.096 52.8306 64.964 52.552 64.7C52.288 64.436 52.156 64.1133 52.156 63.732C52.156 63.3507 52.288 63.028 52.552 62.764C52.8306 62.4853 53.1753 62.346 53.586 62.346C53.9966 62.346 54.334 62.478 54.598 62.742C54.8766 62.9913 55.016 63.3067 55.016 63.688C55.016 64.084 54.8766 64.4213 54.598 64.7C54.334 64.964 53.9966 65.096 53.586 65.096ZM67.3121 77.262V79H57.5441V77.636L64.4301 69.078H57.6761V67.34H67.1361V68.726L60.2501 77.262H67.3121ZM86.7169 71.014C87.6116 71.2633 88.3156 71.718 88.8289 72.378C89.3423 73.0233 89.5989 73.8447 89.5989 74.842C89.5989 76.1767 89.0929 77.2033 88.0809 77.922C87.0836 78.6407 85.6243 79 83.7029 79H76.3549V63.6H83.2629C85.0229 63.6 86.3796 63.952 87.3329 64.656C88.3009 65.36 88.7849 66.3353 88.7849 67.582C88.7849 68.3887 88.5943 69.0853 88.2129 69.672C87.8463 70.2587 87.3476 70.706 86.7169 71.014ZM78.5549 65.382V70.31H83.0649C84.1943 70.31 85.0596 70.1047 85.6609 69.694C86.2769 69.2687 86.5849 68.6527 86.5849 67.846C86.5849 67.0393 86.2769 66.4307 85.6609 66.02C85.0596 65.5947 84.1943 65.382 83.0649 65.382H78.5549ZM83.6149 77.218C84.8616 77.218 85.8003 77.0127 86.4309 76.602C87.0616 76.1913 87.3769 75.546 87.3769 74.666C87.3769 72.95 86.1229 72.092 83.6149 72.092H78.5549V77.218H83.6149ZM98.9233 67.23C100.405 67.23 101.578 67.6627 102.443 68.528C103.323 69.3787 103.763 70.6327 103.763 72.29V79H101.651V72.532C101.651 71.4027 101.38 70.552 100.837 69.98C100.295 69.408 99.5173 69.122 98.5053 69.122C97.3613 69.122 96.4593 69.4593 95.7993 70.134C95.1393 70.794 94.8093 71.7473 94.8093 72.994V79H92.6973V62.676H94.8093V68.99C95.2493 68.4327 95.8213 68 96.5253 67.692C97.244 67.384 98.0433 67.23 98.9233 67.23ZM118.54 67.34V79H116.538V77.24C116.113 77.8413 115.548 78.3107 114.844 78.648C114.155 78.9707 113.399 79.132 112.578 79.132C111.023 79.132 109.799 78.7067 108.904 77.856C108.009 76.9907 107.562 75.722 107.562 74.05V67.34H109.674V73.808C109.674 74.9373 109.945 75.7953 110.488 76.382C111.031 76.954 111.808 77.24 112.82 77.24C113.935 77.24 114.815 76.9027 115.46 76.228C116.105 75.5533 116.428 74.6 116.428 73.368V67.34H118.54ZM132.879 67.34L127.225 80.166C126.726 81.354 126.139 82.19 125.465 82.674C124.805 83.158 124.005 83.4 123.067 83.4C122.495 83.4 121.937 83.3047 121.395 83.114C120.867 82.938 120.427 82.674 120.075 82.322L120.977 80.738C121.578 81.31 122.275 81.596 123.067 81.596C123.58 81.596 124.005 81.4567 124.343 81.178C124.695 80.914 125.01 80.452 125.289 79.792L125.663 78.978L120.515 67.34H122.715L126.785 76.668L130.811 67.34H132.879ZM138.73 67.23C140.344 67.23 141.576 67.626 142.426 68.418C143.292 69.21 143.724 70.3907 143.724 71.96V79H141.722V77.46C141.37 78.0027 140.864 78.4207 140.204 78.714C139.559 78.9927 138.789 79.132 137.894 79.132C136.589 79.132 135.54 78.8167 134.748 78.186C133.971 77.5553 133.582 76.7267 133.582 75.7C133.582 74.6733 133.956 73.852 134.704 73.236C135.452 72.6053 136.64 72.29 138.268 72.29H141.612V71.872C141.612 70.9627 141.348 70.266 140.82 69.782C140.292 69.298 139.515 69.056 138.488 69.056C137.799 69.056 137.124 69.1733 136.464 69.408C135.804 69.628 135.247 69.9287 134.792 70.31L133.912 68.726C134.514 68.242 135.232 67.8753 136.068 67.626C136.904 67.362 137.792 67.23 138.73 67.23ZM138.246 77.504C139.053 77.504 139.75 77.328 140.336 76.976C140.923 76.6093 141.348 76.096 141.612 75.436V73.808H138.356C136.567 73.808 135.672 74.4093 135.672 75.612C135.672 76.1987 135.9 76.6607 136.354 76.998C136.809 77.3353 137.44 77.504 138.246 77.504ZM153.859 67.23C155.34 67.23 156.514 67.6627 157.379 68.528C158.259 69.3787 158.699 70.6327 158.699 72.29V79H156.587V72.532C156.587 71.4027 156.316 70.552 155.773 69.98C155.23 69.408 154.453 69.122 153.441 69.122C152.297 69.122 151.395 69.4593 150.735 70.134C150.075 70.794 149.745 71.7473 149.745 72.994V79H147.633V67.34H149.657V69.1C150.082 68.4987 150.654 68.0367 151.373 67.714C152.106 67.3913 152.935 67.23 153.859 67.23Z" fill="#FBFEF9"/>
</svg>
