<svg width="397" height="143" viewBox="0 0 397 143" fill="none" xmlns="http://www.w3.org/2000/svg">
<rect width="397" height="143" fill="#141414"/>
<path d="M193.933 0V143H165.436V84.37H109.497V143H81V0H109.497V56.3829H165.436V0H193.933Z" fill="#FBFEF9" fill-opacity="0.25"/>
<path d="M313.484 68.64C320.52 71.2276 326.032 75.5857 330.019 81.7143C334.006 87.7067 336 95.129 336 103.981C336 116.511 331.778 126.18 323.335 132.99C315.008 139.663 302.812 143 286.746 143H223.067V0H283.227C298.238 0 309.731 3.33667 317.706 10.01C325.797 16.6833 329.843 25.74 329.843 37.18C329.843 44.1257 328.377 50.3224 325.445 55.77C322.631 61.2176 318.644 65.5076 313.484 68.64ZM251.388 24.9229V58.63H279.709C286.746 58.63 292.082 57.2 295.717 54.34C299.352 51.48 301.17 47.2581 301.17 41.6743C301.17 36.0905 299.352 31.9367 295.717 29.2129C292.082 26.3529 286.746 24.9229 279.709 24.9229H251.388ZM284.635 118.077C292.14 118.077 297.769 116.647 301.522 113.787C305.392 110.927 307.327 106.501 307.327 100.509C307.327 88.66 299.763 82.7357 284.635 82.7357H251.388V118.077H284.635Z" fill="#FBFEF9" fill-opacity="0.25"/>
<path d="M48.885 55.5V94H43.385V76.84H21.275V94H15.775V55.5H21.275V72.055H43.385V55.5H48.885ZM70.2538 64.575C74.2871 64.575 77.3671 65.565 79.4938 67.545C81.6571 69.525 82.7388 72.4767 82.7388 76.4V94H77.7338V90.15C76.8538 91.5067 75.5888 92.5517 73.9388 93.285C72.3255 93.9817 70.4005 94.33 68.1638 94.33C64.9005 94.33 62.2788 93.5417 60.2988 91.965C58.3555 90.3883 57.3838 88.3167 57.3838 85.75C57.3838 83.1833 58.3188 81.13 60.1888 79.59C62.0588 78.0133 65.0288 77.225 69.0988 77.225H77.4588V76.18C77.4588 73.9067 76.7988 72.165 75.4788 70.955C74.1588 69.745 72.2155 69.14 69.6488 69.14C67.9255 69.14 66.2388 69.4333 64.5888 70.02C62.9388 70.57 61.5455 71.3217 60.4088 72.275L58.2088 68.315C59.7121 67.105 61.5088 66.1883 63.5988 65.565C65.6888 64.905 67.9071 64.575 70.2538 64.575ZM69.0438 90.26C71.0605 90.26 72.8021 89.82 74.2688 88.94C75.7355 88.0233 76.7988 86.74 77.4588 85.09V81.02H69.3188C64.8455 81.02 62.6088 82.5233 62.6088 85.53C62.6088 86.9967 63.1771 88.1517 64.3138 88.995C65.4505 89.8383 67.0271 90.26 69.0438 90.26ZM103.18 57.205C100.027 57.205 98.4499 58.91 98.4499 62.32V64.85H106.92V69.195H98.5599V94H93.2799V69.195H88.3299V64.85H93.2799V62.265C93.2799 59.3683 94.1232 57.0767 95.8099 55.39C97.4966 53.7033 99.8615 52.86 102.905 52.86C104.078 52.86 105.178 53.0067 106.205 53.3C107.232 53.5933 108.112 54.015 108.845 54.565L107.25 58.58C106.04 57.6633 104.683 57.205 103.18 57.205ZM116.325 64.85H121.605V94H116.325V64.85ZM118.965 59.24C117.938 59.24 117.077 58.91 116.38 58.25C115.72 57.59 115.39 56.7833 115.39 55.83C115.39 54.8767 115.72 54.07 116.38 53.41C117.077 52.7133 117.938 52.365 118.965 52.365C119.992 52.365 120.835 52.695 121.495 53.355C122.192 53.9783 122.54 54.7667 122.54 55.72C122.54 56.71 122.192 57.5533 121.495 58.25C120.835 58.91 119.992 59.24 118.965 59.24ZM153.28 89.655V94H128.86V90.59L146.075 69.195H129.19V64.85H152.84V68.315L135.625 89.655H153.28ZM201.792 74.035C204.029 74.6583 205.789 75.795 207.072 77.445C208.356 79.0583 208.997 81.1117 208.997 83.605C208.997 86.9417 207.732 89.5083 205.202 91.305C202.709 93.1017 199.061 94 194.257 94H175.887V55.5H193.157C197.557 55.5 200.949 56.38 203.332 58.14C205.752 59.9 206.962 62.3383 206.962 65.455C206.962 67.4717 206.486 69.2133 205.532 70.68C204.616 72.1467 203.369 73.265 201.792 74.035ZM181.387 59.955V72.275H192.662C195.486 72.275 197.649 71.7617 199.152 70.735C200.692 69.6717 201.462 68.1317 201.462 66.115C201.462 64.0983 200.692 62.5767 199.152 61.55C197.649 60.4867 195.486 59.955 192.662 59.955H181.387ZM194.037 89.545C197.154 89.545 199.501 89.0317 201.077 88.005C202.654 86.9783 203.442 85.365 203.442 83.165C203.442 78.875 200.307 76.73 194.037 76.73H181.387V89.545H194.037ZM232.308 64.575C236.012 64.575 238.945 65.6567 241.108 67.82C243.308 69.9467 244.408 73.0817 244.408 77.225V94H239.128V77.83C239.128 75.0067 238.45 72.88 237.093 71.45C235.737 70.02 233.793 69.305 231.263 69.305C228.403 69.305 226.148 70.1483 224.498 71.835C222.848 73.485 222.023 75.8683 222.023 78.985V94H216.743V53.19H222.023V68.975C223.123 67.5817 224.553 66.5 226.313 65.73C228.11 64.96 230.108 64.575 232.308 64.575ZM281.35 64.85V94H276.345V89.6C275.281 91.1033 273.87 92.2767 272.11 93.12C270.386 93.9267 268.498 94.33 266.445 94.33C262.558 94.33 259.496 93.2667 257.26 91.14C255.023 88.9767 253.905 85.805 253.905 81.625V64.85H259.185V81.02C259.185 83.8433 259.863 85.9883 261.22 87.455C262.576 88.885 264.52 89.6 267.05 89.6C269.836 89.6 272.036 88.7567 273.65 87.07C275.263 85.3833 276.07 83 276.07 79.92V64.85H281.35ZM317.196 64.85L303.061 96.915C301.815 99.885 300.348 101.975 298.661 103.185C297.011 104.395 295.013 105 292.666 105C291.236 105 289.843 104.762 288.486 104.285C287.166 103.845 286.066 103.185 285.186 102.305L287.441 98.345C288.945 99.775 290.686 100.49 292.666 100.49C293.95 100.49 295.013 100.142 295.856 99.445C296.736 98.785 297.525 97.63 298.221 95.98L299.156 93.945L286.286 64.85H291.786L301.961 88.17L312.026 64.85H317.196ZM331.826 64.575C335.859 64.575 338.939 65.565 341.066 67.545C343.229 69.525 344.311 72.4767 344.311 76.4V94H339.306V90.15C338.426 91.5067 337.161 92.5517 335.511 93.285C333.898 93.9817 331.973 94.33 329.736 94.33C326.473 94.33 323.851 93.5417 321.871 91.965C319.928 90.3883 318.956 88.3167 318.956 85.75C318.956 83.1833 319.891 81.13 321.761 79.59C323.631 78.0133 326.601 77.225 330.671 77.225H339.031V76.18C339.031 73.9067 338.371 72.165 337.051 70.955C335.731 69.745 333.788 69.14 331.221 69.14C329.498 69.14 327.811 69.4333 326.161 70.02C324.511 70.57 323.118 71.3217 321.981 72.275L319.781 68.315C321.284 67.105 323.081 66.1883 325.171 65.565C327.261 64.905 329.479 64.575 331.826 64.575ZM330.616 90.26C332.633 90.26 334.374 89.82 335.841 88.94C337.308 88.0233 338.371 86.74 339.031 85.09V81.02H330.891C326.418 81.02 324.181 82.5233 324.181 85.53C324.181 86.9967 324.749 88.1517 325.886 88.995C327.023 89.8383 328.599 90.26 330.616 90.26ZM369.647 64.575C373.35 64.575 376.284 65.6567 378.447 67.82C380.647 69.9467 381.747 73.0817 381.747 77.225V94H376.467V77.83C376.467 75.0067 375.789 72.88 374.432 71.45C373.075 70.02 371.132 69.305 368.602 69.305C365.742 69.305 363.487 70.1483 361.837 71.835C360.187 73.485 359.362 75.8683 359.362 78.985V94H354.082V64.85H359.142V69.25C360.205 67.7467 361.635 66.5917 363.432 65.785C365.265 64.9783 367.337 64.575 369.647 64.575Z" fill="#FBFEF9"/>
</svg>
